<svg width="32" height="32" viewBox="0 0 32 32" fill="none" xmlns="http://www.w3.org/2000/svg">
<path d="M17.125 16.9923C17.125 15.6741 18.1936 14.6055 19.5118 14.6055H25.4789C26.7971 14.6055 27.8657 15.6741 27.8657 16.9923V29.5231C27.8657 29.7867 27.652 30.0005 27.3883 30.0005H19.5118C18.1936 30.0005 17.125 28.9318 17.125 27.6136V16.9923Z" fill="#CAFF01"/>
<path d="M17.125 1.95473C17.125 1.42745 17.5524 1 18.0797 1H22.2567C25.3544 1 27.8657 3.51125 27.8657 6.60903V6.84771C27.8657 9.81366 25.4613 12.2181 22.4953 12.2181V12.2181C19.5294 12.2181 17.125 9.81366 17.125 6.84771V1.95473Z" fill="#CAFF01"/>
<path d="M4 3.38682C4 2.06861 5.06862 1 6.38682 1H12.3539C13.6721 1 14.7407 2.06862 14.7407 3.38682V27.613C14.7407 28.9312 13.6721 29.9999 12.3539 29.9999H4.47736C4.21372 29.9999 4 29.7861 4 29.5225V3.38682Z" fill="#CAFF01"/>
</svg>
